<?xml version="1.0" encoding="utf-8"?>
<!-- Generator: Adobe Illustrator 19.0.0, SVG Export Plug-In . SVG Version: 6.00 Build 0)  -->
<svg version="1.0" id="Layer_1" xmlns="http://www.w3.org/2000/svg" xmlns:xlink="http://www.w3.org/1999/xlink" x="0px" y="0px"
	 viewBox="0 0 32 32" style="enable-background:new 0 0 32 32;" xml:space="preserve">
<style type="text/css">
	.st0{fill:#FFFFFF;}
	.st1{fill:#010101;}
</style>
<g id="XMLID_113_">
	<g id="XMLID_114_">
		<path id="XMLID_107_" class="st0" d="M2.4,25.3c-0.7,0-1.3-0.3-1.6-0.9c-0.3-0.6-0.3-1.3,0-1.8L8.7,8.8c0.3-0.6,0.9-0.9,1.6-0.9
			c0.7,0,1.3,0.3,1.6,0.9l7.9,13.7c0.3,0.6,0.3,1.3,0,1.8c-0.3,0.6-0.9,0.9-1.6,0.9H2.4z"/>
		<path id="XMLID_104_" class="st1" d="M10.3,8.5c0.4,0,0.8,0.2,1.1,0.6l7.9,13.7c0.5,0.8-0.1,1.9-1.1,1.9H2.4c-1,0-1.5-1-1.1-1.9
			L9.3,9.1C9.5,8.7,9.9,8.5,10.3,8.5 M10.3,7.3c-0.9,0-1.7,0.5-2.1,1.2L0.3,22.2c-0.4,0.8-0.4,1.7,0,2.4c0.4,0.8,1.2,1.2,2.1,1.2
			h15.8c0.9,0,1.7-0.5,2.1-1.2c0.4-0.8,0.4-1.7,0-2.4L12.4,8.5C12,7.7,11.2,7.3,10.3,7.3L10.3,7.3z"/>
	</g>
	<path id="XMLID_108_" class="st1" d="M30.5,6.1H15.7c-1.2,0-1.9,1.3-1.3,2.3l7.4,12.8c0.3,0.5,0.8,0.8,1.3,0.8c0.5,0,1-0.3,1.3-0.8
		l7.4-12.8C32.4,7.4,31.7,6.1,30.5,6.1z"/>
	<g id="XMLID_8_">
		<path id="XMLID_9_" class="st1" d="M8.4,16.1c0-1.3,0.7-2.1,2-2.1c1.3,0,2,0.8,2,2.1v4.3c0,1.3-0.7,2.1-2,2.1c-1.3,0-2-0.8-2-2.1
			V16.1z M9.7,20.5c0,0.6,0.3,0.8,0.7,0.8c0.4,0,0.7-0.2,0.7-0.8v-4.4c0-0.6-0.3-0.8-0.7-0.8c-0.4,0-0.7,0.2-0.7,0.8V20.5z"/>
	</g>
	<g id="XMLID_5_">
		<path id="XMLID_6_" class="st0" d="M23.1,13.2L23.1,13.2l0.7-4.7h1.4v6.6h-1v-4.7h0l-0.7,4.7h-1l-0.8-4.7h0v4.7h-0.9V8.6h1.4
			L23.1,13.2z"/>
	</g>
</g>
</svg>
